<svg xmlns="http://www.w3.org/2000/svg" viewBox="0 0 75.21 54.27"><defs><style>.cls-1{fill:#7477bf;}</style></defs><title>icon_post</title><g id="Layer_2" data-name="Layer 2"><g id="icon_commented"><path class="cls-1" d="M.23,45.56C6,33.32,17.74,17.05,40,15a5.23,5.23,0,0,0,4.7-5c0-.06,0-.12,0-.18s0-.12,0-.18V2.33h0A2.32,2.32,0,0,1,48.47.53l.08.07,24.73,22.1h0l.3.28a5.22,5.22,0,0,1,.34,7.16l-.9.83L48.64,53.59l-.1.1a2.33,2.33,0,0,1-3.87-1.74h0V42.81c0-.07,0-.12,0-.18s0-.12,0-.18a5.23,5.23,0,0,0-5.23-5.06h0C25.15,37.67,13.49,39.48,4.15,48h0l-.52.48h0a2.27,2.27,0,0,1-1.3.4A2.32,2.32,0,0,1,.23,45.56Z"/></g></g></svg>