<svg xmlns="http://www.w3.org/2000/svg" viewBox="0 0 49.06 62"><defs><style>.cls-1{fill:#7477bf;}</style></defs><title>icon_new.member</title><g id="Layer_2" data-name="Layer 2"><g id="icon_newmember"><path class="cls-1" d="M46.15,45.07a9.92,9.92,0,0,0-12.5-1.25,10.29,10.29,0,0,0-1.52,1.25A9.91,9.91,0,0,0,30.65,57.2a9.75,9.75,0,0,0,1.48,1.9,9.92,9.92,0,0,0,14-14Zm-2.56,8.5h-2a1.08,1.08,0,0,0-.94,1.07h0v1.77a1.48,1.48,0,0,1-3,.12v-2a1.06,1.06,0,0,0-1-1H34.82a1.48,1.48,0,0,1-.12-3h2a1.07,1.07,0,0,0,1-1V47.69h0a1.49,1.49,0,0,1,3,0v2a1.06,1.06,0,0,0,1,1h2a1.47,1.47,0,0,1,1,.43,1.49,1.49,0,0,1-.92,2.54Z"/><path class="cls-1" d="M28.16,40.93,28,40.79a6.23,6.23,0,0,1-2.31-4.51c0-5.94,7-6.84,7.85-19.22C34.25,7.24,28.85,0,19,0S3.76,7.24,4.43,17.06c.85,12.37,7.86,13.28,7.86,19.22,0,3.89-4.74,6.6-8.29,8.08H4l-.7.28A5.81,5.81,0,0,0,5.81,55.69h18.1a1.89,1.89,0,0,0,1.88-1.89,1.55,1.55,0,0,0,0-.26,0,0,0,0,0,0,0l0-.16h0a12.94,12.94,0,0,1-.18-2.14,12.32,12.32,0,0,1,2.67-7.7h0l.14-.17h0a1.86,1.86,0,0,0,.35-1.09,1.88,1.88,0,0,0-.54-1.32Z"/></g></g></svg>